<svg xmlns="http://www.w3.org/2000/svg" viewBox="0 0 22 19"><title>Asset 9</title><g id="Layer_2" data-name="Layer 2"><g id="Layer_1-2" data-name="Layer 1"><path d="M21.5,19a.5.5,0,0,1-.5-.5V1H5.71L1,5.71V18.5a.5.5,0,0,1-.5.5.5.5,0,0,1-.5-.5V5.5a.47.47,0,0,1,.15-.35l5-5A.47.47,0,0,1,5.5,0h16a.5.5,0,0,1,.5.5v18A.5.5,0,0,1,21.5,19Z" style="fill:#111"/><path d="M.5,6a.5.5,0,0,1,0-1H5V.5a.5.5,0,0,1,1,0v5a.5.5,0,0,1-.5.5Z" style="fill:#111"/><path d="M5.87,16H3a.5.5,0,0,1,0-1H5.87a.5.5,0,1,1,0,1Z" style="fill:#111"/><path d="M19.5,16h-10a.5.5,0,0,1,0-1h10a.5.5,0,0,1,0,1Z" style="fill:#111"/><path d="M19.5,18H3.72a.5.5,0,1,1,0-1H19.5a.5.5,0,0,1,0,1Z" style="fill:#111"/><polygon points="13.39 8.03 11.72 7.17 12.81 2.5 9.47 7.76 10.89 8.73 9.25 13.32 13.39 8.03" style="fill:#111"/><polygon points="12.96 8.12 11.29 7.26 12.81 2.5 9.04 7.85 10.72 8.78 9.14 13.5 12.96 8.12" style="fill:#111"/></g></g></svg>